<svg width="121" height="24" viewBox="0 0 121 24" fill="none" xmlns="http://www.w3.org/2000/svg">
<path d="M9.12 23.1681C7.34934 23.1681 5.632 22.9334 3.968 22.4641C2.32534 21.9734 1.00267 21.3441 3.40938e-06 20.5761L1.76 16.6721C2.72 17.3761 3.86134 17.9414 5.184 18.3681C6.50667 18.7947 7.82934 19.0081 9.152 19.0081C10.624 19.0081 11.712 18.7947 12.416 18.3681C13.12 17.9201 13.472 17.3334 13.472 16.6081C13.472 16.0747 13.2587 15.6374 12.832 15.2961C12.4267 14.9334 11.8933 14.6454 11.232 14.4321C10.592 14.2187 9.71734 13.9841 8.608 13.7281C6.90134 13.3227 5.504 12.9174 4.416 12.5121C3.328 12.1067 2.38934 11.4561 1.6 10.5601C0.832004 9.66406 0.448004 8.46939 0.448004 6.97606C0.448004 5.67472 0.800004 4.50139 1.504 3.45606C2.208 2.38939 3.264 1.54672 4.672 0.928057C6.10134 0.30939 7.84 5.73026e-05 9.888 5.73218e-05C11.3173 5.73353e-05 12.7147 0.170724 14.08 0.512056C15.4453 0.853391 16.64 1.34406 17.664 1.98406L16.064 5.92006C13.9947 4.74672 11.9253 4.16006 9.856 4.16006C8.40534 4.16006 7.328 4.39472 6.624 4.86406C5.94134 5.33339 5.6 5.95206 5.6 6.72006C5.6 7.48806 5.99467 8.06406 6.784 8.44806C7.59467 8.81072 8.82134 9.17339 10.464 9.53606C12.1707 9.94139 13.568 10.3467 14.656 10.7521C15.744 11.1574 16.672 11.7974 17.44 12.6721C18.2293 13.5467 18.624 14.7307 18.624 16.2241C18.624 17.5041 18.2613 18.6774 17.536 19.7441C16.832 20.7894 15.7653 21.6214 14.336 22.2401C12.9067 22.8587 11.168 23.1681 9.12 23.1681ZM35.4143 0.0320571C38.2516 0.0320572 40.7369 0.53339 42.8703 1.53606C45.0036 2.51739 46.6356 3.88272 47.7663 5.63206C48.9183 7.38139 49.4943 9.36539 49.4943 11.5841C49.4943 13.8027 48.9183 15.7867 47.7663 17.5361C46.6356 19.2854 45.0036 20.6614 42.8703 21.6641C40.7369 22.6454 38.2516 23.1361 35.4143 23.1361C32.5556 23.1361 30.0596 22.6454 27.9263 21.6641C25.8143 20.6614 24.1823 19.2854 23.0303 17.5361C21.8996 15.7867 21.3343 13.8027 21.3343 11.5841C21.3343 9.36539 21.8996 7.38139 23.0303 5.63206C24.1823 3.88272 25.8143 2.51739 27.9263 1.53606C30.0596 0.53339 32.5556 0.0320571 35.4143 0.0320571ZM26.3903 11.5841C26.3903 13.4614 26.9556 15.0294 28.0863 16.2881C29.2383 17.5467 30.8809 18.3467 33.0143 18.6881L33.0143 4.51206C30.8809 4.85339 29.2383 5.65339 28.0863 6.91206C26.9556 8.14939 26.3903 9.70672 26.3903 11.5841ZM37.8143 18.6881C39.9476 18.3467 41.5796 17.5467 42.7103 16.2881C43.8623 15.0294 44.4383 13.4614 44.4383 11.5841C44.4383 9.70672 43.8623 8.14939 42.7103 6.91206C41.5796 5.65339 39.9476 4.85339 37.8143 4.51206L37.8143 18.6881ZM72.2815 20.8641C71.2148 21.5894 69.8708 22.1547 68.2495 22.5601C66.6495 22.9654 64.9428 23.1681 63.1295 23.1681C60.8682 23.1681 58.9482 22.8907 57.3695 22.3361C55.7908 21.7601 54.5962 20.9707 53.7855 19.9681C52.9748 18.9441 52.5695 17.7814 52.5695 16.4801C52.5695 15.2854 52.9002 14.2294 53.5615 13.3121C54.2228 12.3947 55.1295 11.7121 56.2815 11.2641C55.4068 10.7947 54.7242 10.1547 54.2335 9.34406C53.7642 8.53339 53.5295 7.62672 53.5295 6.62406C53.5295 5.40806 53.9028 4.29872 54.6495 3.29606C55.3962 2.29339 56.5268 1.49339 58.0415 0.896058C59.5562 0.298724 61.4122 5.78062e-05 63.6095 5.78269e-05C65.0602 5.78405e-05 66.4788 0.149391 67.8655 0.448058C69.2522 0.72539 70.4575 1.10939 71.4815 1.60006L70.0415 5.56806C68.0788 4.65072 65.9988 4.19206 63.8015 4.19206C62.1375 4.19206 60.8788 4.44806 60.0255 4.96006C59.1935 5.45072 58.7775 6.12272 58.7775 6.97606C58.7775 7.76539 59.0548 8.37339 59.6095 8.80006C60.1855 9.20539 61.0495 9.40806 62.2015 9.40806L68.3135 9.40806L68.3135 13.5041L61.8815 13.5041C60.5802 13.5041 59.5775 13.7281 58.8735 14.1761C58.1695 14.6241 57.8175 15.2747 57.8175 16.1281C57.8175 17.0241 58.2655 17.7281 59.1615 18.2401C60.0788 18.7307 61.4762 18.9761 63.3535 18.9761C64.6762 18.9761 65.9988 18.8054 67.3215 18.4641C68.6442 18.1014 69.7642 17.6001 70.6815 16.9601L72.2815 20.8641ZM90.2333 22.7841L85.9133 16.5441L85.6573 16.5441L81.1453 16.5441L81.1453 22.7841L75.9613 22.7841L75.9613 0.384057L85.6573 0.384057C87.6413 0.384057 89.3586 0.714724 90.8093 1.37606C92.2813 2.03739 93.4119 2.97606 94.2013 4.19206C94.9906 5.40806 95.3853 6.84806 95.3853 8.51206C95.3853 10.1761 94.9799 11.6161 94.1693 12.8321C93.3799 14.0267 92.2493 14.9441 90.7773 15.5841L95.8013 22.7841L90.2333 22.7841ZM90.1373 8.51206C90.1373 7.25339 89.7319 6.29339 88.9213 5.63206C88.1106 4.94939 86.9266 4.60806 85.3693 4.60806L81.1453 4.60806L81.1453 12.4161L85.3693 12.4161C86.9266 12.4161 88.1106 12.0747 88.9213 11.3921C89.7319 10.7094 90.1373 9.74939 90.1373 8.51206ZM110.213 5.8265e-05C112.282 5.82845e-05 114.085 0.405392 115.621 1.21606C117.157 2.02672 118.351 3.22139 119.205 4.80006C120.058 6.37872 120.485 8.28806 120.485 10.5281L120.485 22.7841L115.301 22.7841L115.301 17.4081L105.061 17.4081L105.061 22.7841L99.9405 22.7841L99.9405 10.5281C99.9405 8.28806 100.367 6.37872 101.221 4.80006C102.074 3.22139 103.269 2.02672 104.805 1.21606C106.341 0.405391 108.143 5.82456e-05 110.213 5.8265e-05ZM115.301 13.2481L115.301 10.0481C115.301 8.19206 114.842 6.79472 113.925 5.85606C113.007 4.89606 111.759 4.41606 110.181 4.41606C108.581 4.41606 107.322 4.89606 106.405 5.85606C105.509 6.79472 105.061 8.19206 105.061 10.0481L105.061 13.2481L115.301 13.2481Z" fill="#4C7D87"/>
</svg>
