<svg width="609" height="1063" viewBox="0 0 609 1063" fill="none" xmlns="http://www.w3.org/2000/svg">
<g clip-path="url(#clip0_510_3166)">
<rect width="609" height="1063" fill="url(#paint0_linear_510_3166)"/>
<circle cx="304" cy="768" r="445" fill="#4C7D87" fill-opacity="0.35"/>
<circle cx="542" cy="864" r="199" fill="#4C7D87" fill-opacity="0.35"/>
<circle cx="294" cy="918" r="199" fill="#4C7D87" fill-opacity="0.35"/>
<circle cx="47" cy="895" r="199" fill="#4C7D87" fill-opacity="0.35"/>
<circle cx="47" cy="696" r="116" fill="#4C7D87" fill-opacity="0.35"/>
<circle cx="178" cy="812" r="116" fill="#4C7D87" fill-opacity="0.35"/>
<circle r="116" fill="#4C7D87" fill-opacity="0.35"/>
<path d="M151.048 583.152C145.736 583.152 140.584 582.448 135.592 581.04C130.664 579.568 126.696 577.68 123.688 575.376L128.968 563.664C131.848 565.776 135.272 567.472 139.24 568.752C143.208 570.032 147.176 570.672 151.144 570.672C155.56 570.672 158.824 570.032 160.936 568.752C163.048 567.408 164.104 565.648 164.104 563.472C164.104 561.872 163.464 560.56 162.184 559.536C160.968 558.448 159.368 557.584 157.384 556.944C155.464 556.304 152.84 555.6 149.512 554.832C144.392 553.616 140.2 552.4 136.936 551.184C133.672 549.968 130.856 548.016 128.488 545.328C126.184 542.64 125.032 539.056 125.032 534.576C125.032 530.672 126.088 527.152 128.2 524.016C130.312 520.816 133.48 518.288 137.704 516.432C141.992 514.576 147.208 513.648 153.352 513.648C157.64 513.648 161.832 514.16 165.928 515.184C170.024 516.208 173.608 517.68 176.68 519.6L171.88 531.408C165.672 527.888 159.464 526.128 153.256 526.128C148.904 526.128 145.672 526.832 143.56 528.24C141.512 529.648 140.488 531.504 140.488 533.808C140.488 536.112 141.672 537.84 144.04 538.992C146.472 540.08 150.152 541.168 155.08 542.256C160.2 543.472 164.392 544.688 167.656 545.904C170.92 547.12 173.704 549.04 176.008 551.664C178.376 554.288 179.56 557.84 179.56 562.32C179.56 566.16 178.472 569.68 176.296 572.88C174.184 576.016 170.984 578.512 166.696 580.368C162.408 582.224 157.192 583.152 151.048 583.152ZM229.931 513.744C238.443 513.744 245.899 515.248 252.299 518.256C258.699 521.2 263.595 525.296 266.987 530.544C270.443 535.792 272.171 541.744 272.171 548.4C272.171 555.056 270.443 561.008 266.987 566.256C263.595 571.504 258.699 575.632 252.299 578.64C245.899 581.584 238.443 583.056 229.931 583.056C221.355 583.056 213.867 581.584 207.467 578.64C201.131 575.632 196.235 571.504 192.779 566.256C189.387 561.008 187.691 555.056 187.691 548.4C187.691 541.744 189.387 535.792 192.779 530.544C196.235 525.296 201.131 521.2 207.467 518.256C213.867 515.248 221.355 513.744 229.931 513.744ZM202.859 548.4C202.859 554.032 204.555 558.736 207.947 562.512C211.403 566.288 216.331 568.688 222.731 569.712L222.731 527.184C216.331 528.208 211.403 530.608 207.947 534.384C204.555 538.096 202.859 542.768 202.859 548.4ZM237.131 569.712C243.531 568.688 248.427 566.288 251.819 562.512C255.275 558.736 257.003 554.032 257.003 548.4C257.003 542.768 255.275 538.096 251.819 534.384C248.427 530.608 243.531 528.208 237.131 527.184L237.131 569.712ZM340.532 576.24C337.332 578.416 333.3 580.112 328.436 581.328C323.636 582.544 318.516 583.152 313.076 583.152C306.292 583.152 300.532 582.32 295.796 580.656C291.06 578.928 287.476 576.56 285.044 573.552C282.612 570.48 281.396 566.992 281.396 563.088C281.396 559.504 282.388 556.336 284.372 553.584C286.356 550.832 289.076 548.784 292.532 547.44C289.908 546.032 287.86 544.112 286.388 541.68C284.98 539.248 284.276 536.528 284.276 533.52C284.276 529.872 285.396 526.544 287.636 523.536C289.876 520.528 293.268 518.128 297.812 516.336C302.356 514.544 307.924 513.648 314.516 513.648C318.868 513.648 323.124 514.096 327.284 514.992C331.444 515.824 335.06 516.976 338.133 518.448L333.812 530.352C327.924 527.6 321.684 526.224 315.092 526.224C310.1 526.224 306.324 526.992 303.764 528.528C301.268 530 300.02 532.016 300.02 534.576C300.02 536.944 300.852 538.768 302.516 540.048C304.244 541.264 306.836 541.872 310.292 541.872L328.628 541.872L328.628 554.16L309.332 554.16C305.428 554.16 302.42 554.832 300.308 556.176C298.196 557.52 297.14 559.472 297.14 562.032C297.14 564.72 298.484 566.832 301.172 568.368C303.924 569.84 308.116 570.576 313.748 570.576C317.716 570.576 321.684 570.064 325.652 569.04C329.62 567.952 332.98 566.448 335.732 564.528L340.532 576.24ZM394.388 582L381.428 563.28L380.66 563.28L367.124 563.28L367.124 582L351.572 582L351.572 514.8L380.66 514.8C386.612 514.8 391.764 515.792 396.116 517.776C400.532 519.76 403.924 522.576 406.292 526.224C408.66 529.872 409.844 534.192 409.844 539.184C409.844 544.176 408.628 548.496 406.196 552.144C403.828 555.728 400.436 558.48 396.02 560.4L411.092 582L394.388 582ZM394.1 539.184C394.1 535.408 392.884 532.528 390.452 530.544C388.02 528.496 384.468 527.472 379.796 527.472L367.124 527.472L367.124 550.896L379.796 550.896C384.468 550.896 388.02 549.872 390.452 547.824C392.884 545.776 394.1 542.896 394.1 539.184ZM454.325 513.648C460.533 513.648 465.941 514.864 470.549 517.296C475.157 519.728 478.741 523.312 481.301 528.048C483.861 532.784 485.141 538.512 485.141 545.232L485.141 582L469.589 582L469.589 565.872L438.869 565.872L438.869 582L423.509 582L423.509 545.232C423.509 538.512 424.789 532.784 427.349 528.048C429.909 523.312 433.493 519.728 438.101 517.296C442.709 514.864 448.117 513.648 454.325 513.648ZM469.589 553.392L469.589 543.792C469.589 538.224 468.213 534.032 465.461 531.216C462.709 528.336 458.965 526.896 454.229 526.896C449.429 526.896 445.653 528.336 442.901 531.216C440.213 534.032 438.869 538.224 438.869 543.792L438.869 553.392L469.589 553.392Z" fill="white"/>
<path d="M185.527 481.34H182.328V475.082H183.512C183.902 474.809 184.211 474.473 184.438 474.074C184.664 473.676 184.832 473.195 184.941 472.633C185.051 472.07 185.125 471.41 185.164 470.652L185.75 461.09H197.773V475.082H199.883V481.34H196.672V478H185.527V481.34ZM188.422 470.91C188.383 471.543 188.324 472.113 188.246 472.621C188.168 473.121 188.055 473.566 187.906 473.957C187.758 474.34 187.559 474.676 187.309 474.965V475.082H194.234V464.008H188.867L188.422 470.91ZM208.015 478.258C206.742 478.258 205.636 477.996 204.699 477.473C203.761 476.949 203.039 476.199 202.531 475.223C202.023 474.238 201.769 473.062 201.769 471.695V471.672C201.769 470.312 202.027 469.145 202.542 468.168C203.058 467.184 203.781 466.43 204.71 465.906C205.648 465.375 206.75 465.109 208.015 465.109C209.281 465.109 210.378 465.375 211.308 465.906C212.246 466.43 212.972 467.18 213.488 468.156C214.003 469.133 214.261 470.305 214.261 471.672V471.695C214.261 473.07 214.007 474.246 213.5 475.223C212.992 476.199 212.269 476.949 211.332 477.473C210.402 477.996 209.296 478.258 208.015 478.258ZM208.027 475.574C208.597 475.574 209.085 475.422 209.492 475.117C209.906 474.812 210.222 474.371 210.441 473.793C210.667 473.215 210.781 472.516 210.781 471.695V471.672C210.781 470.852 210.667 470.152 210.441 469.574C210.214 468.996 209.894 468.555 209.48 468.25C209.066 467.945 208.578 467.793 208.015 467.793C207.46 467.793 206.972 467.949 206.55 468.262C206.136 468.566 205.816 469.008 205.589 469.586C205.363 470.156 205.25 470.852 205.25 471.672V471.695C205.25 472.516 205.363 473.215 205.589 473.793C205.816 474.371 206.136 474.812 206.55 475.117C206.964 475.422 207.457 475.574 208.027 475.574ZM222.827 478.258C221.468 478.258 220.315 477.977 219.37 477.414C218.425 476.852 217.706 476.016 217.214 474.906C216.722 473.797 216.476 472.426 216.476 470.793V470.77C216.476 469.035 216.62 467.551 216.909 466.316C217.206 465.082 217.644 464.074 218.222 463.293C218.8 462.504 219.522 461.918 220.39 461.535C221.257 461.145 222.269 460.93 223.425 460.891L224.913 460.855C225.593 460.832 226.222 460.777 226.8 460.691C227.378 460.605 227.858 460.484 228.241 460.328V462.988C227.999 463.129 227.597 463.25 227.034 463.352C226.48 463.445 225.847 463.508 225.136 463.539L223.718 463.574C222.71 463.605 221.894 463.789 221.269 464.125C220.651 464.453 220.175 464.949 219.839 465.613C219.503 466.27 219.261 467.113 219.112 468.145L219.089 468.32H219.194C219.452 467.812 219.784 467.383 220.19 467.031C220.597 466.672 221.073 466.402 221.62 466.223C222.167 466.035 222.78 465.941 223.46 465.941C224.593 465.941 225.573 466.184 226.401 466.668C227.237 467.152 227.886 467.836 228.347 468.719C228.815 469.602 229.05 470.648 229.05 471.859V471.883C229.05 473.195 228.796 474.328 228.288 475.281C227.788 476.234 227.073 476.969 226.144 477.484C225.214 478 224.108 478.258 222.827 478.258ZM222.769 475.574C223.355 475.574 223.855 475.434 224.269 475.152C224.69 474.871 225.011 474.461 225.23 473.922C225.456 473.383 225.569 472.73 225.569 471.965V471.941C225.569 471.215 225.456 470.598 225.23 470.09C225.011 469.574 224.69 469.184 224.269 468.918C223.855 468.645 223.355 468.508 222.769 468.508C222.183 468.508 221.679 468.645 221.257 468.918C220.835 469.184 220.511 469.574 220.284 470.09C220.065 470.598 219.956 471.215 219.956 471.941V471.965C219.956 472.73 220.065 473.383 220.284 473.922C220.511 474.461 220.831 474.871 221.245 475.152C221.667 475.434 222.175 475.574 222.769 475.574ZM231.721 482.137V465.379H235.143V467.535H235.249C235.475 467.035 235.772 466.605 236.139 466.246C236.514 465.887 236.948 465.613 237.44 465.426C237.94 465.23 238.491 465.133 239.092 465.133C240.155 465.133 241.069 465.395 241.835 465.918C242.608 466.434 243.202 467.184 243.616 468.168C244.03 469.145 244.237 470.316 244.237 471.684V471.695C244.237 473.062 244.03 474.234 243.616 475.211C243.202 476.188 242.612 476.938 241.846 477.461C241.088 477.984 240.182 478.246 239.127 478.246C238.534 478.246 237.983 478.152 237.475 477.965C236.967 477.77 236.526 477.496 236.151 477.145C235.776 476.793 235.471 476.371 235.237 475.879H235.143V482.137H231.721ZM237.956 475.41C238.526 475.41 239.022 475.262 239.444 474.965C239.866 474.66 240.19 474.23 240.417 473.676C240.643 473.121 240.756 472.461 240.756 471.695V471.684C240.756 470.91 240.639 470.246 240.405 469.691C240.178 469.137 239.854 468.711 239.432 468.414C239.018 468.117 238.526 467.969 237.956 467.969C237.393 467.969 236.897 468.121 236.467 468.426C236.045 468.723 235.713 469.148 235.471 469.703C235.237 470.258 235.12 470.918 235.12 471.684V471.695C235.12 472.461 235.241 473.121 235.483 473.676C235.725 474.23 236.057 474.66 236.479 474.965C236.901 475.262 237.393 475.41 237.956 475.41ZM252.627 478.258C251.354 478.258 250.248 477.996 249.311 477.473C248.373 476.949 247.65 476.199 247.143 475.223C246.635 474.238 246.381 473.062 246.381 471.695V471.672C246.381 470.312 246.639 469.145 247.154 468.168C247.67 467.184 248.393 466.43 249.322 465.906C250.26 465.375 251.361 465.109 252.627 465.109C253.893 465.109 254.99 465.375 255.92 465.906C256.857 466.43 257.584 467.18 258.1 468.156C258.615 469.133 258.873 470.305 258.873 471.672V471.695C258.873 473.07 258.619 474.246 258.111 475.223C257.604 476.199 256.881 476.949 255.943 477.473C255.014 477.996 253.908 478.258 252.627 478.258ZM252.639 475.574C253.209 475.574 253.697 475.422 254.104 475.117C254.518 474.812 254.834 474.371 255.053 473.793C255.279 473.215 255.393 472.516 255.393 471.695V471.672C255.393 470.852 255.279 470.152 255.053 469.574C254.826 468.996 254.506 468.555 254.092 468.25C253.678 467.945 253.19 467.793 252.627 467.793C252.072 467.793 251.584 467.949 251.162 468.262C250.748 468.566 250.428 469.008 250.201 469.586C249.975 470.156 249.861 470.852 249.861 471.672V471.695C249.861 472.516 249.975 473.215 250.201 473.793C250.428 474.371 250.748 474.812 251.162 475.117C251.576 475.422 252.068 475.574 252.639 475.574ZM267.005 478V465.379H278.56V478H275.126V467.957H270.427V478H267.005ZM287.442 478.258C286.169 478.258 285.063 477.996 284.126 477.473C283.188 476.949 282.465 476.199 281.958 475.223C281.45 474.238 281.196 473.062 281.196 471.695V471.672C281.196 470.312 281.454 469.145 281.969 468.168C282.485 467.184 283.208 466.43 284.137 465.906C285.075 465.375 286.176 465.109 287.442 465.109C288.708 465.109 289.805 465.375 290.735 465.906C291.673 466.43 292.399 467.18 292.915 468.156C293.43 469.133 293.688 470.305 293.688 471.672V471.695C293.688 473.07 293.434 474.246 292.926 475.223C292.419 476.199 291.696 476.949 290.758 477.473C289.829 477.996 288.723 478.258 287.442 478.258ZM287.454 475.574C288.024 475.574 288.512 475.422 288.919 475.117C289.333 474.812 289.649 474.371 289.868 473.793C290.094 473.215 290.208 472.516 290.208 471.695V471.672C290.208 470.852 290.094 470.152 289.868 469.574C289.641 468.996 289.321 468.555 288.907 468.25C288.493 467.945 288.005 467.793 287.442 467.793C286.887 467.793 286.399 467.949 285.977 468.262C285.563 468.566 285.243 469.008 285.016 469.586C284.79 470.156 284.676 470.852 284.676 471.672V471.695C284.676 472.516 284.79 473.215 285.016 473.793C285.243 474.371 285.563 474.812 285.977 475.117C286.391 475.422 286.883 475.574 287.454 475.574ZM298.633 478H294.613L299.57 471.039V471.484L294.813 465.379H298.703L302.36 470.371H302.723V465.379H306.098V470.371H306.461L310.106 465.379H313.973L309.25 471.449V470.992L314.219 478H310.176L306.473 472.68H306.098V478H302.723V472.68H302.348L298.633 478ZM319.609 478.199C318.773 478.199 318.039 478.039 317.406 477.719C316.773 477.391 316.277 476.941 315.918 476.371C315.566 475.793 315.39 475.133 315.39 474.391V474.367C315.39 473.602 315.582 472.949 315.965 472.41C316.347 471.863 316.902 471.434 317.629 471.121C318.363 470.801 319.254 470.609 320.3 470.547L325.175 470.242V472.363L320.816 472.645C320.144 472.684 319.633 472.84 319.281 473.113C318.937 473.379 318.765 473.738 318.765 474.191V474.203C318.765 474.672 318.941 475.039 319.293 475.305C319.652 475.57 320.129 475.703 320.722 475.703C321.238 475.703 321.695 475.602 322.093 475.398C322.5 475.195 322.82 474.922 323.054 474.578C323.289 474.227 323.406 473.832 323.406 473.395V469.527C323.406 468.973 323.226 468.535 322.867 468.215C322.515 467.895 322 467.734 321.32 467.734C320.687 467.734 320.179 467.863 319.797 468.121C319.422 468.371 319.187 468.695 319.093 469.094L319.07 469.199H315.929L315.941 469.059C316.011 468.285 316.273 467.605 316.726 467.02C317.187 466.426 317.816 465.961 318.613 465.625C319.418 465.281 320.371 465.109 321.472 465.109C322.566 465.109 323.511 465.285 324.308 465.637C325.105 465.988 325.722 466.48 326.16 467.113C326.597 467.746 326.816 468.492 326.816 469.352V478H323.406V476.16H323.312C323.078 476.582 322.773 476.945 322.398 477.25C322.031 477.555 321.613 477.789 321.144 477.953C320.675 478.117 320.164 478.199 319.609 478.199ZM334.456 472.164C334.386 473.383 334.21 474.441 333.929 475.34C333.655 476.23 333.222 476.918 332.628 477.402C332.042 477.879 331.238 478.117 330.214 478.117C329.909 478.117 329.648 478.098 329.429 478.059C329.218 478.027 329.062 477.996 328.96 477.965V475.094C329.03 475.109 329.124 475.125 329.241 475.141C329.366 475.156 329.507 475.164 329.663 475.164C330.07 475.164 330.39 475.043 330.624 474.801C330.866 474.559 331.046 474.195 331.163 473.711C331.288 473.219 331.37 472.609 331.409 471.883L331.784 465.379H341.593V478H338.171V467.969H334.726L334.456 472.164ZM350.487 478.258C349.214 478.258 348.108 477.996 347.171 477.473C346.233 476.949 345.51 476.199 345.003 475.223C344.495 474.238 344.241 473.062 344.241 471.695V471.672C344.241 470.312 344.499 469.145 345.014 468.168C345.53 467.184 346.253 466.43 347.182 465.906C348.12 465.375 349.221 465.109 350.487 465.109C351.753 465.109 352.85 465.375 353.78 465.906C354.717 466.43 355.444 467.18 355.96 468.156C356.475 469.133 356.733 470.305 356.733 471.672V471.695C356.733 473.07 356.479 474.246 355.971 475.223C355.464 476.199 354.741 476.949 353.803 477.473C352.874 477.996 351.768 478.258 350.487 478.258ZM350.499 475.574C351.069 475.574 351.557 475.422 351.964 475.117C352.378 474.812 352.694 474.371 352.913 473.793C353.139 473.215 353.253 472.516 353.253 471.695V471.672C353.253 470.852 353.139 470.152 352.913 469.574C352.686 468.996 352.366 468.555 351.952 468.25C351.538 467.945 351.05 467.793 350.487 467.793C349.932 467.793 349.444 467.949 349.022 468.262C348.608 468.566 348.288 469.008 348.061 469.586C347.835 470.156 347.721 470.852 347.721 471.672V471.695C347.721 472.516 347.835 473.215 348.061 473.793C348.288 474.371 348.608 474.812 349.022 475.117C349.436 475.422 349.928 475.574 350.499 475.574ZM359.369 478V465.379H365.686C367.006 465.379 368.037 465.664 368.78 466.234C369.522 466.805 369.893 467.582 369.893 468.566V468.59C369.893 469.262 369.674 469.859 369.237 470.383C368.807 470.898 368.264 471.211 367.608 471.32V471.426C368.178 471.488 368.674 471.652 369.096 471.918C369.526 472.184 369.858 472.523 370.092 472.938C370.334 473.352 370.455 473.82 370.455 474.344V474.367C370.455 475.102 370.268 475.742 369.893 476.289C369.518 476.828 368.983 477.25 368.287 477.555C367.592 477.852 366.768 478 365.815 478H359.369ZM362.733 475.797H364.877C365.541 475.797 366.049 475.66 366.401 475.387C366.752 475.113 366.928 474.707 366.928 474.168V474.145C366.928 473.621 366.74 473.23 366.365 472.973C365.99 472.707 365.44 472.574 364.713 472.574H362.733V475.797ZM362.733 470.477H364.596C365.229 470.477 365.709 470.355 366.037 470.113C366.365 469.871 366.53 469.512 366.53 469.035V469.012C366.53 468.551 366.377 468.195 366.072 467.945C365.776 467.695 365.338 467.57 364.76 467.57H362.733V470.477ZM376.865 478.199C376.029 478.199 375.295 478.039 374.662 477.719C374.029 477.391 373.533 476.941 373.174 476.371C372.822 475.793 372.646 475.133 372.646 474.391V474.367C372.646 473.602 372.838 472.949 373.22 472.41C373.603 471.863 374.158 471.434 374.885 471.121C375.619 470.801 376.51 470.609 377.556 470.547L382.431 470.242V472.363L378.072 472.645C377.4 472.684 376.888 472.84 376.537 473.113C376.193 473.379 376.021 473.738 376.021 474.191V474.203C376.021 474.672 376.197 475.039 376.549 475.305C376.908 475.57 377.385 475.703 377.978 475.703C378.494 475.703 378.951 475.602 379.349 475.398C379.756 475.195 380.076 474.922 380.31 474.578C380.545 474.227 380.662 473.832 380.662 473.395V469.527C380.662 468.973 380.482 468.535 380.123 468.215C379.771 467.895 379.256 467.734 378.576 467.734C377.943 467.734 377.435 467.863 377.053 468.121C376.678 468.371 376.443 468.695 376.349 469.094L376.326 469.199H373.185L373.197 469.059C373.267 468.285 373.529 467.605 373.982 467.02C374.443 466.426 375.072 465.961 375.869 465.625C376.674 465.281 377.627 465.109 378.728 465.109C379.822 465.109 380.767 465.285 381.564 465.637C382.361 465.988 382.978 466.48 383.416 467.113C383.853 467.746 384.072 468.492 384.072 469.352V478H380.662V476.16H380.568C380.334 476.582 380.029 476.945 379.654 477.25C379.287 477.555 378.869 477.789 378.4 477.953C377.931 478.117 377.42 478.199 376.865 478.199ZM397.255 465.379V467.969H393.493V478H390.072V467.969H386.31V465.379H397.255ZM399.645 478V465.379H403.067V469.035H405.528C407.02 469.035 408.208 469.441 409.091 470.254C409.973 471.059 410.415 472.141 410.415 473.5V473.523C410.415 474.891 409.973 475.98 409.091 476.793C408.208 477.598 407.02 478 405.528 478H399.645ZM404.907 471.613H403.067V475.422H404.907C405.532 475.422 406.024 475.25 406.384 474.906C406.751 474.555 406.934 474.094 406.934 473.523V473.5C406.934 472.93 406.751 472.473 406.384 472.129C406.024 471.785 405.532 471.613 404.907 471.613ZM418.488 478V465.379H424.805C426.125 465.379 427.156 465.664 427.898 466.234C428.64 466.805 429.012 467.582 429.012 468.566V468.59C429.012 469.262 428.793 469.859 428.355 470.383C427.926 470.898 427.383 471.211 426.726 471.32V471.426C427.297 471.488 427.793 471.652 428.215 471.918C428.644 472.184 428.976 472.523 429.211 472.938C429.453 473.352 429.574 473.82 429.574 474.344V474.367C429.574 475.102 429.387 475.742 429.012 476.289C428.637 476.828 428.101 477.25 427.406 477.555C426.711 477.852 425.887 478 424.933 478H418.488ZM421.851 475.797H423.996C424.66 475.797 425.168 475.66 425.519 475.387C425.871 475.113 426.047 474.707 426.047 474.168V474.145C426.047 473.621 425.859 473.23 425.484 472.973C425.109 472.707 424.558 472.574 423.832 472.574H421.851V475.797ZM421.851 470.477H423.715C424.348 470.477 424.828 470.355 425.156 470.113C425.484 469.871 425.648 469.512 425.648 469.035V469.012C425.648 468.551 425.496 468.195 425.191 467.945C424.894 467.695 424.457 467.57 423.879 467.57H421.851V470.477Z" fill="white"/>
</g>
<defs>
<linearGradient id="paint0_linear_510_3166" x1="0" y1="531.5" x2="609" y2="531.5" gradientUnits="userSpaceOnUse">
<stop stop-color="#E2F0F0"/>
<stop offset="1" stop-color="#4C7D87"/>
</linearGradient>
<clipPath id="clip0_510_3166">
<rect width="609" height="1063" fill="white"/>
</clipPath>
</defs>
</svg>
