<svg width="24" height="24" viewBox="0 0 24 24" fill="none" xmlns="http://www.w3.org/2000/svg">
<g clip-path="url(#clip0_527_1930)">
<path d="M12.5 14.3636C14.0815 14.3636 15.3636 13.0815 15.3636 11.5C15.3636 9.91846 14.0815 8.63636 12.5 8.63636C10.9185 8.63636 9.63636 9.91846 9.63636 11.5C9.63636 13.0815 10.9185 14.3636 12.5 14.3636Z" stroke="#181D27" stroke-width="2" stroke-linecap="round" stroke-linejoin="round"/>
<path d="M19.5636 14.3636C19.4366 14.6515 19.3987 14.9709 19.4548 15.2806C19.511 15.5902 19.6586 15.8759 19.8786 16.1009L19.9359 16.1582C20.1134 16.3355 20.2542 16.546 20.3503 16.7778C20.4464 17.0096 20.4958 17.258 20.4958 17.5089C20.4958 17.7597 20.4464 18.0082 20.3503 18.2399C20.2542 18.4717 20.1134 18.6822 19.9359 18.8595C19.7586 19.037 19.5481 19.1779 19.3163 19.2739C19.0845 19.37 18.8361 19.4195 18.5852 19.4195C18.3343 19.4195 18.0859 19.37 17.8542 19.2739C17.6224 19.1779 17.4118 19.037 17.2345 18.8595L17.1773 18.8023C16.9523 18.5822 16.6666 18.4346 16.3569 18.3785C16.0473 18.3223 15.7279 18.3602 15.44 18.4873C15.1577 18.6083 14.9169 18.8092 14.7473 19.0653C14.5777 19.3214 14.4867 19.6215 14.4855 19.9286V20.0909C14.4855 20.5972 14.2843 21.0828 13.9263 21.4408C13.5683 21.7989 13.0827 22 12.5764 22C12.07 22 11.5845 21.7989 11.2264 21.4408C10.8684 21.0828 10.6673 20.5972 10.6673 20.0909V20.005C10.6599 19.6891 10.5576 19.3826 10.3738 19.1256C10.1899 18.8685 9.93297 18.6727 9.63636 18.5636C9.34846 18.4366 9.02909 18.3987 8.71944 18.4548C8.40979 18.511 8.12406 18.6586 7.89909 18.8786L7.84182 18.9359C7.66451 19.1134 7.45396 19.2542 7.2222 19.3503C6.99044 19.4464 6.74202 19.4958 6.49114 19.4958C6.24025 19.4958 5.99183 19.4464 5.76007 19.3503C5.52831 19.2542 5.31776 19.1134 5.14045 18.9359C4.96295 18.7586 4.82214 18.5481 4.72607 18.3163C4.62999 18.0845 4.58054 17.8361 4.58054 17.5852C4.58054 17.3343 4.62999 17.0859 4.72607 16.8542C4.82214 16.6224 4.96295 16.4118 5.14045 16.2345L5.19773 16.1773C5.41779 15.9523 5.5654 15.6666 5.62155 15.3569C5.67769 15.0473 5.63979 14.7279 5.51273 14.44C5.39173 14.1577 5.19081 13.9169 4.93472 13.7473C4.67862 13.5777 4.37852 13.4867 4.07136 13.4855H3.90909C3.40277 13.4855 2.91718 13.2843 2.55916 12.9263C2.20114 12.5683 2 12.0827 2 11.5764C2 11.07 2.20114 10.5845 2.55916 10.2264C2.91718 9.86841 3.40277 9.66727 3.90909 9.66727H3.995C4.31095 9.65988 4.61737 9.55761 4.87442 9.37376C5.13148 9.18991 5.32727 8.93297 5.43636 8.63636C5.56343 8.34846 5.60133 8.02909 5.54519 7.71944C5.48904 7.40979 5.34142 7.12406 5.12136 6.89909L5.06409 6.84182C4.88659 6.66451 4.74578 6.45396 4.6497 6.2222C4.55363 5.99044 4.50418 5.74202 4.50418 5.49114C4.50418 5.24025 4.55363 4.99183 4.6497 4.76007C4.74578 4.52831 4.88659 4.31776 5.06409 4.14045C5.24139 3.96295 5.45194 3.82214 5.6837 3.72607C5.91546 3.62999 6.16389 3.58054 6.41477 3.58054C6.66566 3.58054 6.91408 3.62999 7.14584 3.72607C7.3776 3.82214 7.58815 3.96295 7.76545 4.14045L7.82273 4.19773C8.04769 4.41779 8.33342 4.5654 8.64307 4.62155C8.95272 4.67769 9.27209 4.63979 9.56 4.51273H9.63636C9.91869 4.39173 10.1595 4.19081 10.3291 3.93472C10.4987 3.67862 10.5897 3.37852 10.5909 3.07136V2.90909C10.5909 2.40277 10.792 1.91718 11.1501 1.55916C11.5081 1.20114 11.9937 1 12.5 1C13.0063 1 13.4919 1.20114 13.8499 1.55916C14.208 1.91718 14.4091 2.40277 14.4091 2.90909V2.995C14.4103 3.30216 14.5013 3.60226 14.6709 3.85835C14.8405 4.11445 15.0813 4.31536 15.3636 4.43636C15.6515 4.56343 15.9709 4.60133 16.2806 4.54519C16.5902 4.48904 16.8759 4.34142 17.1009 4.12136L17.1582 4.06409C17.3355 3.88659 17.546 3.74578 17.7778 3.6497C18.0096 3.55363 18.258 3.50418 18.5089 3.50418C18.7597 3.50418 19.0082 3.55363 19.2399 3.6497C19.4717 3.74578 19.6822 3.88659 19.8595 4.06409C20.037 4.24139 20.1779 4.45194 20.2739 4.6837C20.37 4.91546 20.4195 5.16389 20.4195 5.41477C20.4195 5.66566 20.37 5.91408 20.2739 6.14584C20.1779 6.3776 20.037 6.58815 19.8595 6.76545L19.8023 6.82273C19.5822 7.04769 19.4346 7.33342 19.3785 7.64307C19.3223 7.95272 19.3602 8.27209 19.4873 8.56V8.63636C19.6083 8.91869 19.8092 9.15947 20.0653 9.32907C20.3214 9.49867 20.6215 9.58968 20.9286 9.59091H21.0909C21.5972 9.59091 22.0828 9.79205 22.4408 10.1501C22.7989 10.5081 23 10.9937 23 11.5C23 12.0063 22.7989 12.4919 22.4408 12.8499C22.0828 13.208 21.5972 13.4091 21.0909 13.4091H21.005C20.6978 13.4103 20.3977 13.5013 20.1416 13.6709C19.8856 13.8405 19.6846 14.0813 19.5636 14.3636Z" stroke="#181D27" stroke-width="2" stroke-linecap="round" stroke-linejoin="round"/>
</g>
<defs>
<clipPath id="clip0_527_1930">
<rect width="24" height="24" fill="white"/>
</clipPath>
</defs>
</svg>
