<svg width="24" height="24" viewBox="0 0 24 24" fill="none" xmlns="http://www.w3.org/2000/svg">
<path d="M17.2727 20V18.1111C17.2727 17.1092 16.8705 16.1483 16.1544 15.4398C15.4384 14.7313 14.4672 14.3333 13.4545 14.3333H5.81818C4.80554 14.3333 3.83437 14.7313 3.11832 15.4398C2.40227 16.1483 2 17.1092 2 18.1111V20M23 20V18.1111C22.9994 17.2741 22.7178 16.461 22.1995 15.7994C21.6812 15.1379 20.9555 14.6654 20.1364 14.4561M16.3182 3.12278C17.1395 3.33084 17.8674 3.80344 18.3873 4.46607C18.9071 5.1287 19.1893 5.94367 19.1893 6.7825C19.1893 7.62133 18.9071 8.4363 18.3873 9.09893C17.8674 9.76156 17.1395 10.2342 16.3182 10.4422M13.4545 6.77778C13.4545 8.86419 11.7451 10.5556 9.63636 10.5556C7.52764 10.5556 5.81818 8.86419 5.81818 6.77778C5.81818 4.69137 7.52764 3 9.63636 3C11.7451 3 13.4545 4.69137 13.4545 6.77778Z" stroke="#181D27" stroke-width="2" stroke-linecap="round" stroke-linejoin="round"/>
</svg>
